<svg xmlns="http://www.w3.org/2000/svg" width="24" height="24" viewBox="0 0 24 24"><path fill="none" stroke="currentColor" stroke-linecap="round" stroke-linejoin="round" stroke-width="1.5" d="M12 6.826A.913.913 0 1 0 12 5a.913.913 0 0 0 0 1.826m6.088 0a.913.913 0 1 0 0-1.826a.913.913 0 0 0 0 1.826m-12.176 0a.913.913 0 1 0 0-1.826a.913.913 0 0 0 0 1.826M12 12.913a.913.913 0 1 0 0-1.826a.913.913 0 0 0 0 1.826m6.088 0a.913.913 0 1 0 0-1.826a.913.913 0 0 0 0 1.826m-12.176 0a.913.913 0 1 0 0-1.826a.913.913 0 0 0 0 1.826M12 19a.913.913 0 1 0 0-1.826A.913.913 0 0 0 12 19m6.088 0a.913.913 0 1 0 0-1.826a.913.913 0 0 0 0 1.826M5.912 19a.913.913 0 1 0 0-1.826a.913.913 0 0 0 0 1.826"/></svg>